<?xml version="1.0" encoding="UTF-8"?>
<svg id="Capa_2" data-name="Capa 2" xmlns="http://www.w3.org/2000/svg" viewBox="0 0 403.14 346.54">
  <defs>
    <style>
      .cls-1 {
        fill: #1e1e1c;
      }
    </style>
  </defs>
  <g id="Capa_1-2" data-name="Capa 1">
    <path class="cls-1" d="m117.16,26.47c-2.04,10.13-4.02,19.85-5.96,29.58-7.99,39.99-16.11,79.95-23.88,119.97-2.52,12.97-3.08,26.12-.6,39.26,6.17,32.7,31.56,46.67,60.74,42.5,27.29-3.9,45.11-21.33,58.54-44.06,9.94-16.82,15.16-35.39,19.97-54.14,5.91-23.07,12.3-46.03,23.68-67.17,19.13-35.53,47.59-59.44,87.14-69.39.27-.07.49-.39,1.03-.84-4.86-7.04-9.73-14.11-15.31-22.19,27.47,10.13,53.92,19.89,80.64,29.75-13.04,23.56-25.82,46.66-39.22,70.86-2-10.69-3.77-20.14-5.71-30.51-1.86,1.36-3.41,2.37-4.83,3.56-15.09,12.68-24.05,29.35-29.54,47.78-7.84,26.31-14.49,52.97-22.17,79.32-11.19,38.4-29.36,72.92-59.13,100.32-46.09,42.43-99.93,55.31-159.79,37.97-44.89-13.01-70.9-44.73-79.84-90.37-4.54-23.18-3.43-46.44.92-69.54,6.19-32.87,12.11-65.81,19.04-98.52,6.69-31.53,32.38-52.57,64.68-54.08,9.62-.45,19.27-.07,29.59-.07Zm-27.95,23.17c-22.73.8-39.94,15.39-44.38,37.37-5.6,27.73-10.77,55.55-16.25,83.3-4.73,23.96-8.24,47.98-3.82,72.39,6.44,35.56,25.21,62.07,60.08,73.36,54.03,17.49,102.58,6.24,143.93-33.12,27.35-26.04,43.17-58.77,53.09-94.67,6.78-24.53,12.82-49.27,20.09-73.66,8.99-30.14,26.02-54.51,54.04-70.22.43-.24.67-.79,1.47-1.77-2.09.27-3.39.37-4.68.61-38.91,7.27-67.79,27.82-85.23,63.84-10.31,21.3-15.76,44.14-21.83,66.79-7,26.15-16.76,50.94-34.78,71.7-20.03,23.07-44.61,36.53-75.95,35.51-31.69-1.03-57.84-19.93-67.5-48.96-6.2-18.64-6.41-37.77-2.95-56.8,5.86-32.25,12.48-64.36,18.81-96.52,1.88-9.57,3.85-19.13,5.86-29.16Z"/>
  </g>
</svg>